<?xml version="1.0" encoding="UTF-8" standalone="no"?>
<!-- Created with Inkscape (http://www.inkscape.org/) -->

<svg
   version="1.1"
   id="svg1"
   width="1135.0457"
   height="1149.1794"
   viewBox="0 0 1135.0457 1149.1794"
   sodipodi:docname="logo_big.png"
   inkscape:export-filename="..\..\..\..\Desktop\logo_big.svg"
   inkscape:export-xdpi="96"
   inkscape:export-ydpi="96"
   xmlns:inkscape="http://www.inkscape.org/namespaces/inkscape"
   xmlns:sodipodi="http://sodipodi.sourceforge.net/DTD/sodipodi-0.dtd"
   xmlns:xlink="http://www.w3.org/1999/xlink"
   xmlns="http://www.w3.org/2000/svg"
   xmlns:svg="http://www.w3.org/2000/svg">
  <defs
     id="defs1">
    <linearGradient
       id="linearGradient40"
       inkscape:collect="always">
      <stop
         style="stop-color:#dc2828;stop-opacity:1;"
         offset="0.70479709"
         id="stop40" />
      <stop
         style="stop-color:#ff5555;stop-opacity:1;"
         offset="1"
         id="stop41" />
    </linearGradient>
    <radialGradient
       inkscape:collect="always"
       xlink:href="#linearGradient40"
       id="radialGradient41"
       cx="525.00885"
       cy="525.08429"
       fx="525.00885"
       fy="525.08429"
       r="524.33813"
       gradientTransform="matrix(1,0,0,0.99998864,0,0.00596354)"
       gradientUnits="userSpaceOnUse" />
    <filter
       style="color-interpolation-filters:sRGB"
       inkscape:label="Drop Shadow"
       id="filter56"
       x="-0.050993006"
       y="-0.050993006"
       width="1.101986"
       height="1.1157081">
      <feFlood
         result="flood"
         in="SourceGraphic"
         flood-opacity="0.670588"
         flood-color="rgb(0,0,0)"
         id="feFlood55" />
      <feGaussianBlur
         result="blur"
         in="SourceGraphic"
         stdDeviation="21.884499"
         id="feGaussianBlur55" />
      <feOffset
         result="offset"
         in="blur"
         dx="0.000000"
         dy="14.133739"
         id="feOffset55" />
      <feComposite
         result="comp1"
         operator="in"
         in="flood"
         in2="offset"
         id="feComposite55" />
      <feComposite
         result="comp2"
         operator="over"
         in="SourceGraphic"
         in2="comp1"
         id="feComposite56" />
    </filter>
    <radialGradient
       inkscape:collect="always"
       xlink:href="#linearGradient40"
       id="radialGradient2"
       gradientUnits="userSpaceOnUse"
       gradientTransform="matrix(1,0,0,0.99998864,0,0.00596354)"
       cx="525.00885"
       cy="525.08429"
       fx="525.00885"
       fy="525.08429"
       r="524.33813" />
    <radialGradient
       inkscape:collect="always"
       xlink:href="#linearGradient40"
       id="radialGradient3"
       gradientUnits="userSpaceOnUse"
       gradientTransform="matrix(1,0,0,0.99998864,0,0.00596354)"
       cx="525.00885"
       cy="525.08429"
       fx="525.00885"
       fy="525.08429"
       r="524.33813" />
  </defs>
  <sodipodi:namedview
     id="namedview1"
     pagecolor="#ffffff"
     bordercolor="#000000"
     borderopacity="0.25"
     inkscape:showpageshadow="2"
     inkscape:pageopacity="0.0"
     inkscape:pagecheckerboard="0"
     inkscape:deskcolor="#d1d1d1" />
  <g
     inkscape:groupmode="layer"
     inkscape:label="Image"
     id="g1"
     transform="translate(43.814301,43.168488)">
    <g
       id="g5"
       style="fill:url(#radialGradient41);fill-opacity:1;stroke:none;stroke-opacity:1">
      <g
         id="g41"
         style="fill:url(#radialGradient3)">
        <circle
           style="opacity:1;mix-blend-mode:exclusion;fill:#ffffff;fill-opacity:1;fill-rule:evenodd;stroke-width:0;paint-order:stroke fill markers;filter:url(#filter56)"
           id="path6"
           cx="523.7085"
           cy="524.35431"
           r="515" />
        <path
           style="opacity:1;mix-blend-mode:normal;fill:url(#radialGradient2);fill-opacity:1;stroke:none;stroke-opacity:1"
           d="M 503.5,1048.9387 C 402.35313,1045.0699 302.68025,1010.8572 220.1098,951.66525 149.54715,901.08127 92.330969,833.66054 54.484048,756.5 7.4551948,660.61976 -8.9978099,556.04113 6.1061088,449 18.072979,364.19107 53.664426,278.95388 106.17841,209.33901 134.49678,171.79893 173.27956,133.22167 211.46379,104.61158 283.47712,50.654527 370.28457,15.770907 460.5,4.5362523 499.64429,-0.33844113 547.38942,-0.51473539 586,4.0728558 666.79344,13.672485 743.9125,41.598337 811.48719,85.724808 870.74051,124.4174 922.59473,175.77331 961.70597,234.5 c 73.25383,109.99285 102.19223,244.70021 80.72303,375.76364 -13.6571,83.37287 -47.69776,162.90925 -98.60741,230.39735 -28.5324,37.82381 -66.84975,75.85362 -106.39791,105.59948 -39.8778,29.9938 -92.50912,57.81623 -140.42368,74.23203 -47.84459,16.3918 -99.2852,26.4017 -144,28.0212 -7.975,0.2889 -18.1,0.6662 -22.5,0.8385 -4.4,0.1723 -16.55,-0.014 -27,-0.4135 z m 66.15255,-43.4643 c 97.68347,-7.9225 185.82496,-43.4198 261.03706,-105.12764 14.85119,-12.18467 25.92227,-22.6263 42.6549,-40.22972 29.14617,-30.66299 48.78814,-56.27219 69.11877,-90.11704 12.79655,-21.3027 30.3271,-57.76732 28.5036,-59.28923 -0.38162,-0.31851 -39.18875,-21.61063 -72.77914,-39.93137 -4.02174,-2.19352 -7.5131,-3.78737 -7.75858,-3.54189 -0.24549,0.24548 -4.91226,9.40497 -10.37061,20.35441 C 817.48459,813.11517 718.90608,892.60941 596.95467,915.88844 555.11094,923.87589 495.97414,924.1197 448.5,916.50049 367.58814,903.51479 295.49103,870.33837 236.59604,818.99014 l -10.56274,-9.20924 -22.23347,9.55939 c -12.22842,5.25767 -22.4029,9.38997 -22.60996,9.18291 -0.20707,-0.20707 -0.3416,-16.18958 -0.29896,-35.5167 l 0.0775,-35.14021 -6.87988,-9.59493 C 155.1699,721.88669 136.00647,684.57765 124.95579,652.6154 113.27357,618.8265 105.81591,583.77408 101.84709,544 99.88547,524.34141 100.14613,476.74342 102.329,456 110.67595,376.68031 134.53768,308.99574 176.06564,246.84356 237.35054,155.12248 334.95426,88.423757 445.00098,63.063229 469.01011,57.530265 480.53977,55.507625 506,52.362212 c 21.08985,-2.605487 86.37504,-2.636011 106.5,-0.04979 16.94859,2.178029 39.63563,5.929023 52.42945,8.6685 C 675.66133,63.278881 676,63.314235 676,62.136581 676,60.436228 643.88307,51.730459 620.29989,47.038239 587.53213,40.518614 576.54009,39.593836 531.5,39.567357 c -43.03614,-0.0253 -49.84242,0.438248 -81.4746,5.5489 C 383.02282,55.941524 319.31313,80.886933 263,118.3457 201.3955,159.32422 148.90953,215.96463 110.57839,282.83201 81.227207,334.03414 61.087155,391.97082 52.467144,450 c -6.150278,41.40315 -6.139196,98.01044 0.0277,141.5 C 67.97655,700.67846 121.13471,803.14732 201.5,878.72566 c 77.9354,73.29318 176.14907,117.42361 282,126.71134 21.19455,1.8596 63.45862,1.878 86.15255,0.037 z M 571.5,860.07437 c 75.80938,-10.52149 147.6965,-41.74139 196.64474,-85.40096 12.20428,-10.88565 28.89643,-28.37719 37.06758,-38.84275 19.53888,-25.02526 35.80121,-55.59318 43.24911,-81.29433 2.9165,-10.06421 3.15876,-14.43634 1.02822,-18.55635 -3.61774,-6.99593 -8.18907,-6.70698 -46.52017,2.94055 C 668.06741,672.87396 495.33623,727.86725 385,771.99159 c -40.22682,16.08702 -44.18831,17.97742 -46.44402,22.16282 -2.72396,5.05424 -1.15252,9.75427 5.66325,16.93831 7.15885,7.54565 14.77843,12.94684 28.08656,19.90936 27.87723,14.58473 62.26389,24.54234 101.69421,29.44838 18.14634,2.25782 20.5608,2.3495 53,2.01234 23.10277,-0.24011 32.75283,-0.75805 44.5,-2.38843 z M 674,812.61118 c 0,-0.17476 3.0375,-2.33756 6.75,-4.80622 26.82851,-17.83984 54.83655,-46.34717 73.49479,-74.80496 7.32249,-11.16835 20.82724,-37.23863 24.83921,-47.95091 1.46007,-3.8985 3.89975,-7.95409 6.166,-10.25 3.22416,-3.26637 4.37319,-3.79909 8.19424,-3.79909 6.15229,0 9.57998,3.03524 10.26212,9.08719 0.45986,4.07985 -0.11783,5.73615 -5.91776,16.96701 -22.98301,44.50375 -57.3909,79.36455 -105.2886,106.6745 -8.31119,4.73881 -18.5,9.6308 -18.5,8.88248 z M 222.26849,766.38181 c 13.42671,-4.32537 15.63533,-5.39668 20.86366,-10.12017 7.49163,-6.76823 8.12457,-9.07941 8.92696,-32.59664 0.39099,-11.45924 1.10013,-21.18398 1.57589,-21.61053 0.47575,-0.42655 4.24,-2.21635 8.365,-3.97735 17.39995,-7.42817 22.32137,-10.39788 30,-18.10275 16.65561,-16.71251 25.57334,-40.603 24.81326,-66.47437 -0.30458,-10.3673 -0.70509,-12.75738 -2.94361,-17.56658 -2.92636,-6.28695 -8.75805,-12.51323 -13.67791,-14.60343 -1.81955,-0.77304 -6.13937,-1.45376 -9.5996,-1.51272 -5.94391,-0.10129 -7.30745,0.37806 -24.69174,8.68039 -31.49258,15.04013 -51.96631,25.5042 -52.39448,26.77867 -0.22611,0.67302 -1.13375,26.87367 -2.01698,58.22367 -0.88323,31.35 -1.98452,65.55 -2.44731,76 -0.46279,10.45 -0.63492,19.3375 -0.38251,19.75 0.72035,1.17726 1.67815,0.97541 13.60937,-2.86819 z m 31.07487,-115.12197 c 0.35546,-5.36791 0.64862,-12.95783 0.65147,-16.86649 l 0.005,-7.10666 8.08429,-3.64334 c 9.55083,-4.30427 11.20935,-4.44062 14.46116,-1.1888 2.12823,2.12822 2.45455,3.36509 2.45455,9.30365 0,12.51991 -5.59122,20.11331 -19.25318,26.14767 l -7.04976,3.11381 z m 87.42021,71.79841 c 0.95504,-0.51797 6.6403,-2.8714 12.63391,-5.22984 12.78097,-5.02923 19.16461,-10.05842 22.44425,-17.68213 3.11825,-7.24857 3.50468,-13.50428 2.19259,-35.49396 -0.65099,-10.91 -1.01365,-20.00632 -0.80593,-20.21404 0.20772,-0.20773 5.75381,6.19957 12.32465,14.23844 19.4972,23.85321 23.2414,27.99785 26.83205,29.70173 4.32366,2.05171 9.79875,2.07122 13.91457,0.0496 4.75817,-2.33716 12.33856,-11.06367 15.97686,-18.39249 2.77659,-5.59306 3.18143,-7.38212 3.00333,-13.27215 -0.28726,-9.49984 -2.27772,-13.24127 -15.13363,-28.44652 C 428.0158,621.06617 423,614.86543 423,614.53747 c 0,-0.32797 1.71024,-2.75992 3.80053,-5.40434 4.85443,-6.14131 10.61423,-17.80142 12.90911,-26.13313 1.31108,-4.75994 1.79036,-10.11397 1.79036,-20 0,-12.3214 -0.20903,-13.89287 -2.39429,-18 -4.01141,-7.53936 -6.88869,-10.60568 -13.01662,-13.87183 -8.16048,-4.34949 -14.78582,-4.29015 -27.28948,0.24443 -9.22057,3.34394 -50.02933,19.57825 -58.93178,23.44391 l -4.63217,2.0114 -0.56061,15.83604 c -0.30834,8.70983 -0.57578,23.03605 -0.59431,31.83605 -0.0573,27.2241 1.79618,117.49183 2.43371,118.52337 0.75888,1.22791 2.03013,1.23834 4.24912,0.0349 z m 35.84342,-118.64004 c -0.78651,-2.04961 -0.7663,-13.71786 0.0417,-24.09705 l 0.63674,-8.17884 8.80065,-3.17337 c 13.35051,-4.81398 16.87036,-2.71348 16.89915,10.08471 0.0269,11.95171 -4.8711,18.49504 -18.26377,24.39898 -6.78185,2.98966 -7.31351,3.05293 -8.1145,0.96557 z m 100.02924,64.96738 C 503.0666,660.59848 510.2627,653.2752 510.42467,635 c 0.0414,-4.675 -0.54788,-24.025 -1.30957,-43 -0.8865,-22.0839 -1.17104,-45.92641 -0.79065,-66.25 0.37239,-19.89585 0.23806,-31.75 -0.35979,-31.75 -0.52473,0 -6.01894,1.63879 -12.20935,3.64175 -20.90741,6.76476 -27.24574,11.37836 -30.37922,22.11271 -1.51098,5.17613 -1.60729,10.35389 -0.97179,52.24554 0.52703,34.74164 2.70637,96.19954 3.5372,99.75 0.10576,0.45195 0.75257,0.27606 8.69473,-2.36441 z m 69.84314,-25.56608 c 14.19389,-4.93629 18.48903,-7.41275 22.52877,-12.98945 5.56139,-7.67727 5.79666,-10.34375 4.08241,-46.26857 -0.57578,-12.06618 -0.83015,-22.15522 -0.56529,-22.42009 0.57631,-0.5763 10.88711,9.1994 34.32162,32.54042 18.31747,18.24439 19.89633,19.30073 28.86561,19.3126 10.73603,0.0142 23.87779,-8.97114 26.31819,-17.99442 0.87865,-3.24876 1.00776,-8.94884 0.46435,-20.5 -0.41398,-8.8 -0.9033,-40.525 -1.08738,-70.5 -0.18408,-29.975 -0.35111,-54.57795 -0.37117,-54.67323 -0.0201,-0.0953 -5.98327,1.4087 -13.25157,3.34215 -15.43066,4.10475 -21.22802,6.79385 -25.75003,11.94413 -5.74941,6.54822 -6.03339,8.10206 -6.05019,33.10483 -0.008,12.53017 -0.40512,23.39742 -0.88154,24.14946 -0.66302,1.04657 -2.34166,-0.009 -7.15568,-4.5 -3.45921,-3.22704 -7.03411,-6.54234 -7.94423,-7.36734 -0.91012,-0.825 -4.54986,-4.2 -8.08831,-7.5 -11.21916,-10.46311 -24.12263,-21.97029 -25.60316,-22.83264 -3.08587,-1.79739 -12.14912,-0.74728 -24.31177,2.81689 -6.875,2.01466 -12.8737,4.02608 -13.33044,4.46983 -0.45674,0.44374 -0.64271,28.4231 -0.41328,62.17636 0.45649,67.15603 1.92341,97.86956 4.67436,97.86956 0.84045,0 6.93738,-1.88122 13.54873,-4.18049 z m 192.83388,-56.8504 c 17.33804,-4.33226 22.73363,-7.42302 27.00468,-15.46911 2.55013,-4.80412 2.66212,-10.4271 0.91617,-46 -0.64787,-13.2 -1.19058,-33.22735 -1.20602,-44.50522 L 766,460.48955 l 12.25,-2.80943 c 14.94619,-3.42778 17.22355,-4.27899 21.50462,-8.03782 6.88047,-6.04114 9.97577,-17.82281 6.83977,-26.0343 -1.89972,-4.97437 -4.64069,-6.608 -11.08715,-6.608 -2.41927,0 -21.18559,4.25158 -41.70295,9.44796 C 733.28693,431.64433 708.625,437.89387 699,440.33583 l -17.5,4.43991 -0.73185,8.36213 c -1.02096,11.66549 -0.14777,18.57342 2.70884,21.43003 3.98142,3.98142 8.60058,4.10191 22.51641,0.58738 6.87863,-1.73724 12.74581,-3.15787 13.03817,-3.15695 0.29237,9.2e-4 0.65349,11.81417 0.8025,26.25167 0.14901,14.4375 0.42517,29.85 0.61369,34.25 1.92946,45.03263 2.5599,56.70338 3.11124,57.59547 0.35382,0.57248 1.30125,0.7884 2.1054,0.47982 0.80416,-0.30859 6.94614,-1.93136 13.64885,-3.60618 z M 178.73804,576.89046 c 18.17031,-5.78792 56.53111,-20.00086 63.62665,-23.57412 8.11354,-4.08591 18.28848,-13.29239 23.34152,-21.11984 C 273.43508,520.22403 277,505.81883 277,486.56035 c 0,-19.3228 -3.24221,-27.08548 -13.38539,-32.04808 l -5.48739,-2.68473 3.32095,-4.66377 c 8.29082,-11.64323 11.8655,-22.61319 11.9473,-36.66377 0.0638,-10.96396 -1.32874,-15.30355 -6.37339,-19.86108 -4.92858,-4.45268 -10.16193,-5.34592 -19.13235,-3.26554 -8.30501,1.92606 -15.40991,4.77459 -45.88973,18.39829 -35.89578,16.0445 -31.75591,13.28398 -32.43729,21.62962 C 167.37468,454.20078 166.07655,580 167.98804,580 c 0.54343,0 5.38093,-1.39929 10.75,-3.10954 z M 210,509.98739 v -17.01261 l 5.5483,-2.45372 c 7.36158,-3.25564 11.95397,-4.46398 14.46754,-3.80667 3.06533,0.8016 4.98416,5.4424 4.98416,12.05445 0,8.17805 -2.29131,15.15492 -6.2226,18.94735 C 225.89816,520.49373 213.37409,527 210.90678,527 210.39994,527 210,519.49653 210,509.98739 Z M 211.00599,454.75 c 0.003,-2.8875 0.29781,-8.99891 0.65446,-13.58092 l 0.64846,-8.33092 5.59555,-2.51773 c 6.40694,-2.88282 12.74831,-3.5003 14.06517,-1.36957 3.07266,4.97167 1.26096,16.24478 -3.52472,21.93224 -2.25889,2.68454 -13.86335,9.1169 -16.44758,9.1169 -0.54853,0 -0.99463,-2.3625 -0.99134,-5.25 z m 671.78342,100.20351 c 22.39839,-2.41382 35.51537,-8.48194 48.18795,-22.29248 10.72005,-11.68268 15.62062,-29.13557 13.14329,-46.80851 -1.74422,-12.443 -4.47376,-18.47412 -11.49269,-25.39398 -6.91497,-6.81736 -10.61485,-8.20139 -29.12796,-10.89601 -5.5,-0.80053 -12.27331,-1.94776 -15.05179,-2.54938 -9.62442,-2.08397 -14.99982,-7.31231 -12.70231,-12.3548 2.49319,-5.47197 13.31206,-7.37654 33.12279,-5.83099 7.2151,0.56289 13.64202,0.59976 15.42472,0.0885 4.0957,-1.17463 8.37008,-5.39083 11.31344,-11.15945 2.64755,-5.18888 6.37502,-19.42038 6.38614,-24.38234 l 0.007,-3.12594 -9.25,-1.87406 c -6.69672,-1.35676 -13.52848,-1.87193 -24.75,-1.86634 -14.12127,0.007 -16.23705,0.24813 -23.78611,2.7106 -23.21112,7.57136 -39.86053,22.86732 -48.24014,44.31865 -2.01321,5.15369 -2.33806,7.79532 -2.39344,19.46303 -0.0572,12.05303 0.1711,13.94121 2.13001,17.61647 6.54284,12.27549 16.6796,17.60349 37.78968,19.86273 8.64645,0.92536 20.49818,3.4685 23.57211,5.05809 1.4554,0.75262 3.22603,2.76827 3.93474,4.47924 1.13599,2.74254 1.05853,3.41894 -0.65434,5.71314 -1.11931,1.4992 -4.67904,3.67022 -8.3977,5.12162 -9.39545,3.66708 -24.39162,3.57148 -43.39987,-0.27667 l -13.94506,-2.82312 -2.11963,2.65826 c -3.64769,4.57465 -5.50053,11.44627 -5.4952,20.38008 0.009,15.37761 5.40007,20.81952 23.50495,23.72738 10.14771,1.62985 19.98124,1.76272 32.28941,0.43629 z M 345,515.37189 c 14.4532,-4.04222 31.83814,-15.57128 42.76809,-28.36225 7.24398,-8.4774 14.44259,-22.32379 16.20888,-31.17749 1.7544,-8.79412 2.19427,-117.35206 0.49232,-121.50166 -2.83147,-6.90352 -9.50071,-7.09049 -26.81146,-0.75167 -7.29291,2.67051 -12.75948,5.24369 -13.11651,6.1741 -0.33669,0.8774 -0.84484,26.15443 -1.12923,56.17118 -0.28438,30.01674 -0.74064,56.04802 -1.0139,57.84728 -1.00467,6.61513 -10.59849,14.15499 -18.07676,14.20666 -3.97702,0.0275 -6.04449,-1.98609 -6.94114,-6.76019 -0.38405,-2.04482 -0.40517,-25.0321 -0.0469,-51.08286 0.73695,-53.5908 0.79022,-53.11886 -6.23375,-55.22329 -3.16402,-0.94797 -4.79371,-0.72828 -11.63938,1.56901 -4.37812,1.46923 -11.15949,4.00279 -15.06971,5.63013 l -7.1095,2.95881 -0.62865,8.21517 c -0.34576,4.51835 -0.92223,32.29018 -1.28103,61.71518 -0.57793,47.39543 -0.46818,54.21067 0.96189,59.72828 3.44002,13.27253 10.58778,19.82952 24.27509,22.26872 6.1945,1.10392 17.27309,0.3658 24.39169,-1.62511 z m 94.45761,-37.52343 c 17.4202,-6.54937 22.11548,-10.58994 25.70398,-22.11983 1.72656,-5.54745 1.8367,-8.22482 1.24062,-30.15828 -0.45047,-16.57567 -0.332,-23.75898 0.38048,-23.07035 0.56905,0.55 8.44095,10.94341 17.49312,23.09648 14.06168,18.87864 17.1063,22.41009 20.90706,24.25 6.1707,2.98719 9.72054,2.73532 15.45412,-1.09648 9.69692,-6.48055 17.17464,-21.59709 16.0541,-32.45408 -0.70649,-6.84529 -2.99521,-10.8281 -15.49271,-26.96042 C 515.58927,382.09502 511,375.93486 511,375.64626 c 0,-0.2886 2.36758,-3.82464 5.26128,-7.85787 10.04809,-14.00494 14.04622,-26.22776 14.15978,-43.28839 0.0648,-9.73674 -0.20811,-11.57239 -2.37649,-15.98418 -3.39062,-6.89855 -9.94067,-12.98843 -16.20933,-15.07055 -8.33048,-2.76694 -14.18379,-1.58199 -47.33524,9.58258 -16.5,5.55677 -31.575,10.56331 -33.5,11.12562 -1.925,0.56232 -4.11809,1.61699 -4.87354,2.34372 -1.89927,1.82706 -2.93328,60.41234 -1.97682,112.00281 0.79277,42.76119 1.42371,53.5 3.14329,53.5 0.61726,0 6.09137,-1.86819 12.16468,-4.15154 z M 465.35326,357.34912 C 465.70897,353.14114 466,345.80889 466,341.05524 v -8.643 l 8.30955,-2.70612 c 10.22406,-3.32961 12.12646,-3.36102 15.2359,-0.25157 2.14416,2.14415 2.45455,3.35051 2.45455,9.53983 0,12.12491 -5.05924,18.57573 -18.3672,23.41923 -3.92304,1.42781 -7.53633,2.59386 -8.02954,2.59121 -0.50709,-0.003 -0.61572,-3.32925 -0.25,-7.6557 z m 161.48085,58.01477 c 11.91858,-3.43778 22.67057,-7.74874 30.16589,-12.09488 7.6643,-4.44412 19.48245,-15.83097 23.30445,-22.45394 5.3187,-9.21653 5.6605,-12.84651 4.89406,-51.97473 L 684.5,293.18068 l -27,6.88594 c -14.85,3.78726 -29.925,7.72403 -33.5,8.74837 l -6.5,1.86245 -0.80463,8.41128 c -1.01254,10.58459 -0.12235,19.68003 2.31902,23.69455 3.27981,5.39322 11.53205,6.43464 21.23561,2.6799 1.55581,-0.60201 1.75,0.0388 1.75,5.77485 0,7.65326 -0.54504,8.31801 -10.54566,12.86185 -7.93266,3.60424 -17.16982,4.80919 -22.74982,2.96763 -15.42156,-5.08958 -21.33615,-32.26991 -11.9283,-54.81619 8.3959,-20.12112 31.0283,-30.3271 57.55982,-25.95637 12.90088,2.12526 17.19866,0.77059 24.03897,-7.5771 C 682.89837,273.19767 685,268.19733 685,262.9552 c 0,-5.28273 -3.32825,-8.75799 -11.51229,-12.0208 -5.27789,-2.10419 -7.5288,-2.37921 -18.98771,-2.31998 -29.65085,0.15328 -57.04988,11.02757 -75.70806,30.04747 -9.0817,9.25778 -13.01471,14.65759 -18.24063,25.04347 -7.39523,14.69709 -9.04017,22.66669 -9.0393,43.79464 6.5e-4,15.79825 0.28168,18.97304 2.29753,25.95493 4.55952,15.79192 13.24209,28.40229 24.8698,36.12033 14.31727,9.50325 29.11099,11.28159 48.15477,5.78863 z M 726.295,386.92537 c 8.91275,-2.24105 26.27095,-6.30382 38.57377,-9.02838 23.77698,-5.26561 25.08418,-5.69811 29.40474,-9.72879 4.66239,-4.34959 5.91744,-10.69045 5.13495,-25.94341 -0.37456,-7.30136 -0.97433,-13.45648 -1.33281,-13.67804 -0.58801,-0.36341 -43.00669,7.87569 -45.7006,8.87656 C 751.01226,337.92962 750,331.37095 750,322.03484 v -6.68602 l 13.25,-2.73529 c 16.85501,-3.47949 19.11827,-4.21109 22.9177,-7.4081 5.48911,-4.61878 6.78558,-9.08395 6.81034,-23.45543 0.0121,-7.0125 -0.31554,-12.74965 -0.72804,-12.74922 -0.4125,4.2e-4 -9.525,1.79443 -20.25,3.98668 -10.725,2.19224 -20.0625,3.99189 -20.75,3.99922 -0.89442,0.01 -1.25,-2.20802 -1.25,-7.79555 0,-4.75982 0.48807,-8.40965 1.25,-9.34751 0.76876,-0.94627 6.63989,-2.59204 15.25,-4.27482 19.39508,-3.7906 22.73483,-4.97944 26.88098,-9.56874 3.8101,-4.21732 4.34398,-6.25495 4.91274,-18.75006 0.268,-5.88751 0.0374,-8.25 -0.80527,-8.25 -2.40266,0 -89.53311,17.71132 -90.14611,18.32433 -0.20485,0.20485 -0.86241,17.63658 -1.46124,38.73717 -0.80848,28.48763 -0.78835,47.38504 0.0782,73.40161 1.20584,36.20438 1.61656,41.53689 3.19923,41.53689 0.51232,0 8.22375,-1.83358 17.1365,-4.07463 z m 109.09391,-22.96109 c 16.60531,-2.79114 21.12019,-4.42075 26.1313,-9.43186 6.03913,-6.03913 6.95218,-10.67828 5.56826,-28.29202 -0.59866,-7.61944 -1.0821,-17.20307 -1.07433,-21.29696 l 0.0141,-7.44344 5.23585,5.90226 c 2.87973,3.24625 11.55132,13.59625 19.27022,23 17.31019,21.08862 22.43065,25.1214 31.80951,25.05255 7.5772,-0.0556 12.56068,-2.45785 18.52734,-8.93091 5.32994,-5.7823 7.12879,-9.99028 7.12879,-16.67606 0,-7.78236 -2.55427,-11.93958 -18.60514,-30.28092 l -14.48344,-16.55025 3.5115,-3.08314 c 5.33366,-4.68301 11.35748,-14.40007 13.6924,-22.08728 1.75118,-5.76537 2.02972,-8.81327 1.70169,-18.62003 -0.46763,-13.98003 -2.12222,-18.49659 -9.71832,-26.52835 C 912.4797,196.4125 905.20577,195.58425 872.94706,202.87347 860.60118,205.66316 843.3,209.45771 834.5,211.3058 l -16,3.36015 0.0684,45.91703 C 818.63751,306.98888 820.97556,366 822.74507,366 c 0.29301,0 5.98274,-0.91607 12.64384,-2.03572 z m 28.13139,-115.397 c -0.39682,-7.938 -0.47176,-14.8368 -0.16654,-15.33066 1.65238,-2.6736 20.47023,-4.47155 24.45883,-2.33692 5.17933,2.7719 6.77358,13.00975 3.23844,20.79646 -2.3938,5.27274 -8.53223,8.61033 -18.74258,10.19071 C 868.35309,262.49909 864.92,263 864.67934,263 c -0.24065,0 -0.76222,-6.49473 -1.15904,-14.43272 z m -531.99509,96.97081 c 8.76692,-5.13775 15.4106,-15.86931 16.24283,-26.23708 0.88027,-10.96633 -3.10489,-16.30852 -12.1529,-16.29124 -13.37927,0.0256 -25.69497,11.59224 -28.58851,26.84981 -3.16389,16.68314 9.23943,24.62097 24.49858,15.67851 z m 48.7106,-18.49253 c 16.0905,-7.65304 24.55906,-31.76895 14.05694,-40.02992 -6.8566,-5.3934 -23.00739,-0.36878 -30.53306,9.49903 -8.92769,11.70618 -8.76414,27.38467 0.33671,32.27759 3.27205,1.75916 10.38739,0.9891 16.13941,-1.7467 z M 301.93048,299.57724 C 412.2527,263.01389 466.48464,246.84194 542,227.98856 c 67.62875,-16.88439 125.64195,-29.45037 191.07381,-41.38767 13.51559,-2.46577 25.81184,-5.0473 27.32499,-5.73674 3.07531,-1.4012 5.6012,-5.5317 5.6012,-9.15945 0,-3.82521 -7.55046,-14.46373 -16.44263,-23.16751 C 704.62589,104.55764 619.10157,81.156385 530,88.461663 463.60074,93.90562 404.58779,111.80692 359.06442,140.31416 c -18.25009,11.42841 -41.17354,29.79816 -54.6915,43.82714 -29.09236,30.19211 -52.46517,70.45304 -61.83991,106.52255 -4.56887,17.57882 -2.85794,25.90696 5.39747,26.27276 0.78677,0.0349 25.08677,-7.77685 54,-17.35937 z M 285.30276,276.80305 C 276.11516,272.36408 284.40762,246.20069 304.57422,216 323.16716,188.15596 345.53729,165.70531 373,147.32792 c 7.64845,-5.11816 13.30102,-8.35831 11.5,-6.59201 -0.55,0.5394 -4.45116,3.95428 -8.66925,7.58861 -13.23673,11.40487 -29.20877,28.44977 -39.98938,42.67548 -17.41689,22.98274 -30.67483,48.71358 -37.87122,73.5 -3.66052,12.60788 -6.44301,15.31034 -12.66739,12.30305 z M 651.21193,177.37583 C 657.95787,172.57602 662.891,163.3699 662.93415,155.5 663.02017,139.80999 639.74313,121.65818 605.5,110.71193 593.44191,106.8574 574.17517,102.38836 564,101.08574 l -6.5,-0.83213 7.29319,-0.12681 c 17.64369,-0.306761 50.55826,5.17687 71.20681,11.8632 22.65097,7.33475 38.95829,15.97428 49.82936,26.3993 6.48167,6.21573 9.33731,11.45897 9.33731,17.14424 0,10.42854 -6.85254,15.08742 -30.98867,21.06848 -16.47089,4.08157 -17.71975,4.1561 -12.96607,0.77381 z"
           id="path1" />
      </g>
    </g>
  </g>
</svg>
